<svg width="38" height="38" viewBox="0 0 38 38" fill="none" xmlns="http://www.w3.org/2000/svg">
<g clip-path="url(#clip0_1_2642)">
<path d="M19 24.94C18.6126 24.94 18.2281 24.9221 17.8489 24.8887C15.892 24.7139 13.9997 24.1001 12.3126 23.0931C10.6256 22.0861 9.18734 20.7117 8.10469 19.0722L1.48438 30.8775H10.0195L14.3242 38.0025L20.4495 24.8591C19.9682 24.9126 19.4843 24.9396 19 24.94ZM29.9102 19.0574C28.3423 21.4319 26.0455 23.2327 23.3655 24.1889L20.3137 30.8403L23.6758 38.0025L27.9805 30.8775H36.5156L29.9102 19.0574Z" fill="white"/>
<path d="M19.0026 15.4375C20.9701 15.4375 22.5651 13.8425 22.5651 11.875C22.5651 9.90749 20.9701 8.3125 19.0026 8.3125C17.035 8.3125 15.4401 9.90749 15.4401 11.875C15.4401 13.8425 17.035 15.4375 19.0026 15.4375Z" fill="white"/>
<path d="M19 1.1875C13.107 1.1875 8.3125 5.98203 8.3125 11.875C8.3125 17.768 13.107 22.5625 19 22.5625C24.893 22.5625 29.6875 17.768 29.6875 11.875C29.6875 5.98203 24.893 1.1875 19 1.1875ZM19 17.8125C17.8257 17.8125 16.6777 17.4643 15.7013 16.8119C14.7249 16.1594 13.9639 15.2321 13.5145 14.1472C13.0651 13.0622 12.9475 11.8684 13.1766 10.7167C13.4057 9.56489 13.9712 8.50693 14.8016 7.67655C15.6319 6.84618 16.6899 6.28069 17.8417 6.05159C18.9934 5.82249 20.1872 5.94007 21.2722 6.38947C22.3571 6.83886 23.2844 7.59988 23.9369 8.5763C24.5893 9.55272 24.9375 10.7007 24.9375 11.875C24.9357 13.4492 24.3096 14.9584 23.1965 16.0715C22.0834 17.1846 20.5742 17.8107 19 17.8125Z" fill="white"/>
</g>
<defs>
<clipPath id="clip0_1_2642">
<rect width="38" height="38" fill="white"/>
</clipPath>
</defs>
</svg>
