<svg width="147" height="35" viewBox="0 0 147 35" fill="none" xmlns="http://www.w3.org/2000/svg">
<path d="M0 26.9484V2.82597H7.84921C8.78321 2.82597 9.70374 2.94272 10.6153 3.16724C11.5358 3.38278 12.3665 3.74201 13.112 4.24493C13.8529 4.73888 14.4456 5.38998 14.8901 6.20275C15.3437 7.00653 15.5727 7.99441 15.5727 9.16641C15.5727 9.94773 15.438 10.6572 15.1775 11.3038C14.9126 11.9505 14.5668 12.5073 14.1358 12.9743C13.7047 13.4413 13.2377 13.8185 12.7348 14.1058C13.5116 14.4067 14.1986 14.8602 14.8003 15.4709C15.411 16.0816 15.887 16.7911 16.2373 17.5904C16.583 18.3807 16.7582 19.2339 16.7582 20.1409C16.7582 21.2815 16.5336 22.2739 16.0936 23.1226C15.6625 23.9757 15.0787 24.6852 14.3513 25.26C13.6194 25.8258 12.7886 26.2479 11.8546 26.5353C10.9206 26.8137 9.95071 26.9484 8.94487 26.9484H0ZM3.82582 12.8306H8.1366C8.80566 12.8306 9.42983 12.7318 10.0046 12.5252C10.5884 12.3232 11.0643 11.9774 11.4236 11.4834C11.7828 10.9805 11.9624 10.298 11.9624 9.43583C11.9624 8.67246 11.7738 8.06177 11.4056 7.60375C11.0464 7.13675 10.5614 6.80446 9.95071 6.5979C9.34002 6.38236 8.65748 6.27459 7.90309 6.27459H3.82582V12.8306ZM3.82582 23.3381H9.01671C9.80702 23.3381 10.4985 23.2213 11.1003 22.9789C11.6975 22.7409 12.1645 22.3592 12.5013 21.8293C12.8335 21.2905 13.0042 20.5989 13.0042 19.7458C13.0042 18.9914 12.8246 18.3538 12.4653 17.8239C12.1151 17.285 11.6301 16.8719 11.0104 16.5845C10.3998 16.2972 9.69925 16.1535 8.90894 16.1535H3.82582V23.3381Z" fill="white"/>
<path d="M19.3744 34.2731L22.4458 26.5856L15.818 9.88131H19.8414L24.3497 22.3646L28.8761 9.88131H32.8995L23.3259 34.2731H19.3744Z" fill="white"/>
<path d="M38.6147 27.2685C36.9847 27.2685 35.7454 26.8195 34.8967 25.9214C34.057 25.0143 33.6394 23.7974 33.6394 22.2752V12.9352H30.8913V9.8817H33.6933V5.7685L37.2676 2.98446V9.8817H41.5784V12.9352H37.2676V21.7723C37.2676 22.6254 37.4562 23.2227 37.8424 23.5684C38.2241 23.9187 38.7045 24.0893 39.2793 24.0893C39.661 24.0893 40.0427 24.0309 40.4288 23.9097C40.824 23.7929 41.1653 23.6672 41.4527 23.5325V26.8015C41.1653 26.9227 40.7566 27.026 40.2313 27.1248C39.7149 27.2191 39.176 27.2685 38.6147 27.2685Z" fill="white"/>
<path d="M49.6521 27.2323C48.2511 27.2323 47.0207 26.9898 45.97 26.5138C44.9282 26.0379 44.0571 25.3912 43.3656 24.574C42.683 23.7478 42.1711 22.8138 41.8388 21.772C41.502 20.7302 41.3359 19.6346 41.3359 18.485C41.3359 17.3624 41.4976 16.2712 41.8209 15.216C42.1442 14.1518 42.6336 13.1953 43.2937 12.3422C43.9493 11.48 44.7845 10.8064 45.7904 10.3125C46.8052 9.80957 48.0041 9.55811 49.3827 9.55811C50.5547 9.55811 51.574 9.73323 52.4362 10.079C53.2983 10.4158 54.0213 10.8783 54.6095 11.462C55.1933 12.0368 55.6692 12.6924 56.0285 13.4198C56.3967 14.1518 56.6616 14.9196 56.8188 15.7189C56.9849 16.5092 57.0702 17.2951 57.0702 18.0719C57.0702 18.3862 57.0568 18.6916 57.0343 18.9879C57.0074 19.2753 56.9804 19.4819 56.9445 19.5986H45.1797C45.2605 20.4383 45.4716 21.1882 45.8083 21.8438C46.1541 22.4904 46.6435 23.0068 47.2812 23.3885C47.9143 23.7612 48.7091 23.9453 49.6701 23.9453C50.5188 23.9453 51.2911 23.8151 51.9871 23.5502C52.6921 23.2763 53.3567 22.8048 53.9809 22.1312L56.4955 24.3046C55.5615 25.3014 54.5377 26.0379 53.424 26.5138C52.3194 26.9898 51.0621 27.2323 49.6521 27.2323ZM45.1797 16.8864H53.4959C53.424 16.0377 53.2175 15.2968 52.8852 14.6592C52.5619 14.0126 52.1039 13.5097 51.5201 13.1504C50.9319 12.7912 50.2089 12.6116 49.3468 12.6116C48.4577 12.6116 47.7302 12.8047 47.1555 13.1863C46.5807 13.5725 46.1316 14.0844 45.8083 14.731C45.494 15.3777 45.2874 16.0961 45.1797 16.8864Z" fill="white"/>
<path d="M65.5299 27.1966C64.4971 27.1966 63.4868 27.0574 62.4944 26.7834C61.4976 26.4961 60.5905 26.065 59.7643 25.4902C58.938 24.9154 58.242 24.197 57.6807 23.3348C57.1284 22.4727 56.7647 21.4623 56.5851 20.2993L60.3211 19.3294C60.4378 20.3622 60.7432 21.2064 61.2371 21.862C61.7266 22.5221 62.3552 23.0115 63.1231 23.3348C63.8864 23.6491 64.7082 23.8018 65.5838 23.8018C66.922 23.8018 67.9637 23.492 68.7091 22.8678C69.4635 22.2347 69.8407 21.3905 69.8407 20.3352C69.8407 19.6662 69.6701 19.0914 69.3378 18.6109C69.0145 18.1349 68.5744 17.7218 68.0266 17.3716C67.4743 17.0123 66.8501 16.689 66.1586 16.4017C65.4626 16.1053 64.7486 15.8089 64.0212 15.5215C63.2892 15.2252 62.5753 14.8884 61.8837 14.5157C61.1877 14.1475 60.5636 13.7164 60.0157 13.2225C59.4634 12.7195 59.0189 12.1223 58.6866 11.4263C58.3498 10.7348 58.1836 9.89956 58.1836 8.92963C58.1836 7.91481 58.3722 7.00326 58.7584 6.19948C59.1401 5.40019 59.661 4.72214 60.3211 4.16982C60.9901 3.60852 61.7625 3.18193 62.6381 2.89455C63.5093 2.59818 64.4253 2.44551 65.3862 2.44551C66.8591 2.44551 68.2152 2.7778 69.4635 3.43339C70.7208 4.09348 71.7491 5.13076 72.5529 6.54075L69.4276 8.4806C68.9965 7.61844 68.4083 6.96733 67.6674 6.52278C66.9354 6.06925 66.1451 5.84024 65.2964 5.84024C64.6857 5.84024 64.1289 5.96148 63.626 6.19948C63.1321 6.42849 62.7369 6.76527 62.4405 7.20532C62.1397 7.6364 61.9915 8.13933 61.9915 8.7141C61.9915 9.32479 62.1532 9.84568 62.4765 10.2768C62.8088 10.7078 63.2533 11.085 63.8056 11.4083C64.3669 11.7316 64.9956 12.037 65.6916 12.3244C66.3831 12.6028 67.0971 12.8947 67.829 13.2045C68.5565 13.5053 69.2704 13.8466 69.9664 14.2283C70.658 14.601 71.2821 15.05 71.8344 15.5754C72.3823 16.1053 72.8223 16.7339 73.1456 17.4614C73.4779 18.1798 73.6486 19.033 73.6486 20.0119C73.6486 21.1255 73.4375 22.1314 73.0199 23.0295C72.5978 23.9186 72.0186 24.673 71.2776 25.2926C70.5457 25.9033 69.6835 26.3793 68.6912 26.7116C67.7078 27.0349 66.6525 27.1966 65.5299 27.1966Z" fill="white"/>
<path d="M74.8784 26.9268V2.80439H78.5784V12.1085C79.2251 11.2374 80.0064 10.5907 80.9314 10.1686C81.8519 9.75103 82.7725 9.53999 83.6975 9.53999C84.7842 9.53999 85.7137 9.73756 86.4815 10.1327C87.2584 10.5189 87.8915 11.0443 88.3855 11.7133C88.8749 12.3869 89.2342 13.1458 89.4632 13.9945C89.7012 14.8342 89.8224 15.7008 89.8224 16.5989V26.9268H86.1043V17.0838C86.1043 16.545 86.055 16.0241 85.9607 15.5212C85.8619 15.0183 85.6957 14.5692 85.4577 14.1741C85.2152 13.7789 84.8875 13.4691 84.4698 13.2401C84.0477 13.0021 83.5089 12.8808 82.8533 12.8808C81.9283 12.8808 81.1514 13.1143 80.5183 13.5813C79.8807 14.0483 79.3957 14.677 79.0634 15.4673C78.7401 16.2576 78.5784 17.1467 78.5784 18.1256V26.9268H74.8784Z" fill="white"/>
<path d="M91.8008 6.48652V2.80439H95.6805V6.48652H91.8008ZM91.9265 26.9268V9.88126H95.5727V26.9268H91.9265Z" fill="white"/>
<path d="M99.0754 26.9271V12.9351H95.9681V9.8816H99.1113V7.42086C99.1113 6.34317 99.3493 5.43611 99.8298 4.6907C100.306 3.94979 100.943 3.39298 101.734 3.02028C102.524 2.63859 103.377 2.44551 104.302 2.44551C104.841 2.44551 105.362 2.51286 105.865 2.64308C106.377 2.76432 106.853 2.92598 107.284 3.12805L106.152 6.12763C105.91 5.99741 105.658 5.88964 105.398 5.80432C105.133 5.72349 104.877 5.67859 104.626 5.67859C104.132 5.67859 103.709 5.84024 103.35 6.16355C103 6.48686 102.829 7.01673 102.829 7.74417V9.8816H107.086V12.9351H102.829V26.9271H99.0754Z" fill="white"/>
<path d="M112.865 27.2685C111.234 27.2685 109.995 26.8195 109.146 25.9214C108.307 25.0143 107.889 23.7974 107.889 22.2752V12.9352H105.141V9.8817H107.943V5.7685L111.517 2.98446V9.8817H115.828V12.9352H111.517V21.7723C111.517 22.6254 111.706 23.2227 112.092 23.5684C112.474 23.9187 112.954 24.0893 113.529 24.0893C113.911 24.0893 114.292 24.0309 114.679 23.9097C115.074 23.7929 115.415 23.6672 115.702 23.5325V26.8015C115.415 26.9227 115.006 27.026 114.481 27.1248C113.965 27.2191 113.426 27.2685 112.865 27.2685Z" fill="white"/>
<path d="M123.901 27.2323C122.5 27.2323 121.27 26.9898 120.219 26.5138C119.178 26.0379 118.306 25.3912 117.615 24.574C116.932 23.7478 116.42 22.8138 116.088 21.772C115.751 20.7302 115.585 19.6346 115.585 18.485C115.585 17.3624 115.747 16.2712 116.07 15.216C116.394 14.1518 116.883 13.1953 117.543 12.3422C118.199 11.48 119.034 10.8064 120.04 10.3125C121.055 9.80957 122.253 9.55811 123.632 9.55811C124.804 9.55811 125.823 9.73323 126.686 10.079C127.548 10.4158 128.271 10.8783 128.859 11.462C129.443 12.0368 129.919 12.6924 130.278 13.4198C130.646 14.1518 130.911 14.9196 131.068 15.7189C131.234 16.5092 131.32 17.2951 131.32 18.0719C131.32 18.3862 131.306 18.6916 131.284 18.9879C131.257 19.2753 131.23 19.4819 131.194 19.5986H119.429C119.51 20.4383 119.721 21.1882 120.058 21.8438C120.403 22.4904 120.893 23.0068 121.531 23.3885C122.164 23.7612 122.958 23.9453 123.919 23.9453C124.768 23.9453 125.54 23.8151 126.236 23.5502C126.941 23.2763 127.606 22.8048 128.23 22.1312L130.745 24.3046C129.811 25.3014 128.787 26.0379 127.673 26.5138C126.569 26.9898 125.311 27.2323 123.901 27.2323ZM119.429 16.8864H127.745C127.673 16.0377 127.467 15.2968 127.135 14.6592C126.811 14.0126 126.353 13.5097 125.769 13.1504C125.181 12.7912 124.458 12.6116 123.596 12.6116C122.707 12.6116 121.98 12.8047 121.405 13.1863C120.83 13.5725 120.381 14.0844 120.058 14.731C119.743 15.3777 119.537 16.0961 119.429 16.8864Z" fill="white"/>
<path d="M143.282 2.80439H147V26.9268H143.551L143.408 24.8971C142.806 25.6874 142.07 26.2802 141.198 26.6753C140.336 27.0705 139.375 27.2681 138.325 27.2681C137.162 27.2681 136.133 27.0346 135.235 26.5676C134.337 26.1006 133.583 25.4539 132.972 24.6277C132.37 23.8015 131.912 22.8585 131.589 21.7898C131.275 20.7256 131.122 19.594 131.122 18.395C131.122 17.2006 131.275 16.069 131.589 15.0003C131.912 13.9361 132.37 12.9976 132.972 12.1803C133.583 11.3541 134.328 10.7075 135.217 10.2405C136.102 9.7645 137.121 9.52202 138.271 9.52202C139.277 9.52202 140.215 9.71062 141.091 10.0788C141.962 10.4515 142.694 11.0128 143.282 11.7672V2.80439ZM139.241 24.017C140.255 24.017 141.082 23.7656 141.719 23.2626C142.366 22.7507 142.837 22.0682 143.138 21.215C143.435 20.3529 143.587 19.4144 143.587 18.395C143.587 17.3802 143.435 16.4507 143.138 15.611C142.837 14.7623 142.366 14.0798 141.719 13.5634C141.082 13.0515 140.255 12.791 139.241 12.791C138.221 12.791 137.391 13.0515 136.744 13.5634C136.097 14.0798 135.617 14.7623 135.307 15.611C134.993 16.4507 134.84 17.3802 134.84 18.395C134.84 19.4009 134.993 20.3349 135.307 21.197C135.617 22.0502 136.097 22.7328 136.744 23.2447C137.391 23.7611 138.221 24.017 139.241 24.017Z" fill="white"/>
<mask id="mask0_0_2316" style="mask-type:luminance" maskUnits="userSpaceOnUse" x="47" y="-3" width="14" height="13">
<path d="M47.2403 -0.601326L58.6153 -2.26067L60.1087 7.97684L48.7337 9.63619L47.2403 -0.601326Z" fill="white"/>
</mask>
<g mask="url(#mask0_0_2316)">
<mask id="mask1_0_2316" style="mask-type:luminance" maskUnits="userSpaceOnUse" x="45" y="-1" width="13" height="13">
<path d="M57.9895 6.52053L51.562 11.9768L45.9859 5.4012L52.4134 -0.050836L57.9895 6.52053Z" fill="white"/>
</mask>
<g mask="url(#mask1_0_2316)">
<mask id="mask2_0_2316" style="mask-type:luminance" maskUnits="userSpaceOnUse" x="45" y="-1" width="13" height="13">
<path d="M57.9895 6.52053L51.562 11.9768L45.9859 5.4012L52.4134 -0.050836L57.9895 6.52053Z" fill="white"/>
</mask>
<g mask="url(#mask2_0_2316)">
<path d="M57.9642 6.54198L48.8909 8.67991L52.4562 -1.03423e-06C52.96 2.67132 53.7311 5.24761 57.9642 6.54198Z" fill="#0DDF72"/>
</g>
</g>
</g>
</svg>
